IKResults
version=1
nRows=24
nColumns=24
inDegrees=yes

Units are S.I. units (second, meters, Newtons, ...)
If the header above contains a line with 'inDegrees', this indicates whether rotational values are in degrees (yes) or radians (no).

endheader
time	pelvis_tilt	pelvis_list	pelvis_rotation	pelvis_tx	pelvis_ty	pelvis_tz	hip_flexion_r	hip_adduction_r	hip_rotation_r	knee_angle_r	ankle_angle_r	subtalar_angle_r	mtp_angle_r	hip_flexion_l	hip_adduction_l	hip_rotation_l	knee_angle_l	ankle_angle_l	subtalar_angle_l	mtp_angle_l	lumbar_extension	lumbar_bending	lumbar_rotation
5.075000	10.109434	4.981211	-179.068546	0.310365	0.358779	-1.210283	100.549101	-37.917762	0.205720	-136.496899	43.548173	11.024000	0.000000	112.538986	-37.079269	18.906570	-135.410353	42.959867	25.952590	0.000000	-20.578144	5.307096	4.776727
5.080000	10.132134	4.973744	-179.072311	0.310496	0.358938	-1.210090	100.585569	-37.929103	0.216401	-136.458252	43.523851	11.013037	0.000000	112.528313	-37.068797	18.842317	-135.406250	42.945965	25.925617	0.000000	-20.571762	5.318865	4.810306
5.085000	10.146216	4.979077	-179.080408	0.310591	0.359100	-1.209947	100.590077	-37.922715	0.216256	-136.422478	43.512019	11.013873	0.000000	112.524293	-37.070933	18.806640	-135.401046	42.942203	25.921589	0.000000	-20.575299	5.335883	4.819069
5.090000	10.168251	4.963645	-179.079937	0.310803	0.359386	-1.209861	100.613566	-37.925653	0.220173	-136.355797	43.426668	11.030419	0.000000	112.483995	-37.063138	18.716577	-135.353759	42.900345	25.875983	0.000000	-20.590259	5.329565	4.829447
5.095000	10.187475	4.937593	-179.054024	0.311049	0.359679	-1.209794	100.627489	-37.932252	0.248626	-136.282555	43.407619	11.028466	0.000000	112.416638	-37.030700	18.596578	-135.272809	42.906531	25.826349	0.000000	-20.601816	5.307613	4.838212
5.100000	10.208691	4.939430	-179.058606	0.311217	0.359941	-1.209738	100.615389	-37.919050	0.220889	-136.221082	43.399700	11.037423	0.000000	112.402489	-37.037708	18.541425	-135.222897	42.896323	25.827715	0.000000	-20.614902	5.314347	4.839844
5.105000	10.208833	4.929715	-179.062034	0.311298	0.360268	-1.209608	100.599124	-37.921451	0.225236	-136.164632	43.363142	11.050288	0.000000	112.346305	-37.052709	18.464741	-135.181692	42.867829	25.762851	0.000000	-20.635305	5.279739	4.931680
5.110000	10.189963	4.934069	-179.069710	0.311341	0.360514	-1.209455	100.566299	-37.928481	0.215227	-136.127308	43.330762	11.037200	0.000000	112.305083	-37.071145	18.430009	-135.183775	42.840846	25.738127	0.000000	-20.667857	5.324866	4.877930
5.115000	10.201903	4.933665	-179.074186	0.311431	0.360723	-1.209311	100.566573	-37.940389	0.202338	-136.080768	43.309267	11.035210	0.000000	112.286179	-37.080555	18.374845	-135.169027	42.831586	25.736445	0.000000	-20.667668	5.340900	4.894966
5.120000	10.222563	4.901109	-179.052469	0.311600	0.360954	-1.209194	100.597788	-37.958088	0.247727	-136.024791	43.255616	11.024146	0.000000	112.235499	-37.074166	18.250595	-135.126712	42.807789	25.764936	0.000000	-20.673060	5.324247	4.871506
5.125000	10.247138	4.901901	-179.053236	0.311783	0.361221	-1.209147	100.585008	-37.950259	0.214883	-135.959572	43.249204	11.025970	0.000000	112.222162	-37.083114	18.188903	-135.056998	42.811797	25.770941	0.000000	-20.680254	5.327085	4.870329
5.130000	10.272124	4.900211	-179.038371	0.311881	0.361511	-1.209012	100.581633	-37.978606	0.200685	-135.900713	43.217698	11.017783	0.000000	112.180992	-37.083971	18.111444	-135.030538	42.843548	25.783779	0.000000	-20.666658	5.309077	4.943180
5.135000	10.278772	4.888344	-179.048003	0.311955	0.361822	-1.208877	100.568280	-37.977284	0.203003	-135.842348	43.162351	11.067549	0.000000	112.138788	-37.109278	18.029847	-134.976506	42.828338	25.755481	0.000000	-20.669523	5.292727	4.977473
5.140000	10.263518	4.875689	-179.045577	0.312060	0.362164	-1.208773	100.527322	-37.992041	0.197507	-135.784216	43.160607	11.043454	0.000000	112.062721	-37.135611	17.944547	-134.933528	42.821773	25.715465	0.000000	-20.704892	5.296928	4.943111
5.145000	10.207169	4.668056	-179.021106	0.312020	0.362569	-1.208315	100.628449	-38.052839	0.529135	-135.720412	43.160112	11.164163	0.000000	111.983599	-37.053803	18.245820	-134.628743	42.158713	26.792444	0.000000	-20.768690	5.139929	4.843433
5.150000	10.361020	5.080346	-179.145625	0.312342	0.363235	-1.207649	100.278450	-38.026774	-0.167416	-135.476739	42.973385	11.039354	0.000000	112.117367	-37.121771	17.909862	-134.872836	42.855306	25.535695	0.000000	-20.689783	5.706182	5.137426
5.155000	11.022170	4.791769	-179.396252	0.313951	0.363011	-1.207051	99.668422	-37.464396	0.645195	-133.900302	49.000572	15.927186	0.000000	112.062758	-37.396384	16.847182	-135.187744	43.868209	25.038470	0.000000	-20.161250	5.454135	5.241920
5.160000	10.369990	5.035490	-179.163867	0.312499	0.364047	-1.207269	100.195621	-38.031550	-0.137362	-135.279742	43.034336	11.131808	0.000000	111.942534	-37.196849	17.657471	-134.794738	42.839337	25.444194	0.000000	-20.710621	5.706655	5.139536
5.165000	10.431475	5.277275	-179.163728	0.312742	0.364495	-1.207576	99.928987	-38.002114	-0.605608	-135.178995	43.036672	11.053212	0.000000	111.755566	-37.376065	17.524300	-135.144347	43.944960	25.381125	0.000000	-20.678496	5.919669	5.224352
5.170000	10.373959	5.028478	-179.125341	0.312674	0.365089	-1.206946	100.039005	-38.073748	-0.201790	-135.081946	43.046856	11.171014	0.000000	111.738226	-37.201467	17.421126	-134.647452	42.834719	25.372779	0.000000	-20.722139	5.741041	5.144529
5.175000	10.444786	5.174328	-179.106896	0.312978	0.365520	-1.207467	99.860425	-38.012467	-0.556206	-134.996462	43.050633	11.044986	0.000000	111.468782	-37.397941	17.160981	-134.947319	43.950923	25.325200	0.000000	-20.662095	5.824869	5.183955
5.180000	10.363929	4.902196	-179.064222	0.312889	0.366287	-1.206948	99.926515	-38.065874	-0.150047	-134.887294	43.066219	11.163606	0.000000	111.380283	-37.244092	17.025352	-134.434568	42.829375	25.310310	0.000000	-20.735263	5.603480	5.041100
5.185000	10.342544	4.876673	-179.070791	0.312947	0.367118	-1.206846	99.779467	-38.033938	-0.205570	-134.751975	43.067636	11.109917	0.000000	111.182040	-37.282836	16.871142	-134.315656	42.839059	25.222533	0.000000	-20.752975	5.593279	5.096354
5.190000	10.350464	4.832920	-179.079144	0.313047	0.368077	-1.206606	99.685962	-38.000917	-0.224301	-134.589479	43.015339	11.024274	0.000000	110.965569	-37.302429	16.655399	-134.191527	42.826289	25.096737	0.000000	-20.758430	5.587048	5.086889
